<?xml version="1.0" standalone="no"?>
<!DOCTYPE svg PUBLIC "-//W3C//DTD SVG 20010904//EN"
 "http://www.w3.org/TR/2001/REC-SVG-20010904/DTD/svg10.dtd">
<svg version="1.0" xmlns="http://www.w3.org/2000/svg"
 width="257.000000pt" height="257.000000pt" viewBox="0 0 257.000000 257.000000"
 preserveAspectRatio="xMidYMid meet">
<metadata>
Created by potrace 1.11, written by Peter Selinger 2001-2013
</metadata>
<g transform="translate(0.000000,257.000000) scale(0.100000,-0.100000)"
fill="#000000" stroke="none">
<path d="M1870 2438 c-58 -22 -104 -52 -146 -96 -54 -57 -59 -52 142 -131 101
-40 184 -74 184 -75 0 -2 -20 -20 -45 -40 l-45 -37 -44 30 c-57 39 -166 93
-236 117 -83 28 -272 25 -360 -6 -36 -12 -71 -27 -77 -33 -7 -5 -13 -7 -13 -3
0 3 -22 -8 -49 -23 -42 -25 -52 -28 -72 -17 -51 26 -200 87 -246 101 -194 57
-313 21 -313 -95 0 -81 45 -186 136 -317 l42 -62 -39 -52 c-21 -29 -39 -56
-39 -60 0 -4 -6 -14 -13 -21 -7 -7 -26 -35 -42 -63 -16 -27 -35 -59 -42 -70
-6 -11 -28 -52 -48 -91 -37 -70 -37 -70 -78 -71 -93 -2 -234 -14 -265 -22 -18
-6 -35 -10 -37 -10 -7 1 -67 -12 -87 -17 -24 -7 -23 -12 17 -98 19 -41 35 -78
35 -81 0 -3 10 -27 21 -53 38 -83 54 -121 189 -440 72 -171 137 -315 142 -318
6 -4 36 -8 67 -9 31 -1 124 -6 206 -10 83 -4 173 -9 200 -10 28 -1 111 -6 185
-10 196 -11 249 -13 515 -19 132 -3 308 -8 392 -11 167 -5 156 -9 168 57 16
82 30 167 40 243 3 27 8 52 11 54 5 6 -3 -119 -11 -152 -8 -35 -15 -79 -21
-122 -6 -52 -24 -108 -37 -116 -5 -4 -23 -5 -41 -4 -48 5 -238 15 -545 30 -74
4 -162 8 -195 10 -112 7 -395 22 -556 30 -25 1 -114 6 -197 10 -106 5 -153 4
-153 -3 0 -19 21 -25 104 -28 45 -2 124 -6 176 -9 52 -3 147 -8 210 -10 168
-6 346 -14 420 -20 36 -3 110 -8 165 -10 55 -3 123 -7 152 -9 62 -5 354 -18
437 -20 l60 -1 13 45 c8 25 16 63 19 84 2 21 6 42 8 45 2 3 7 40 11 81 4 41 8
82 10 90 5 26 16 135 21 191 4 55 11 114 19 159 6 31 19 229 18 290 0 72 -12
281 -17 288 -2 4 -7 32 -10 62 -3 30 -8 72 -11 92 -6 43 -69 216 -85 232 -6 6
1 -21 15 -59 15 -39 28 -78 30 -88 2 -9 6 -21 9 -25 3 -5 8 -31 12 -58 3 -27
8 -58 10 -69 16 -77 22 -435 10 -536 -3 -27 -9 -73 -12 -101 -4 -29 -9 -55
-11 -58 -5 -5 3 114 12 175 5 34 6 312 1 365 -2 19 -7 71 -11 115 -9 96 -9 96
-35 191 -19 71 -79 203 -103 230 -7 7 -23 27 -37 45 -14 18 -33 42 -43 52 -17
17 -17 21 -2 65 17 52 32 79 38 72 3 -3 26 -45 52 -95 86 -162 117 -220 129
-232 19 -21 142 44 196 103 49 53 79 110 64 124 -10 9 -365 140 -381 140 -11
0 -44 47 -87 122 -29 51 -32 63 -14 52 7 -4 8 -3 4 5 -4 6 -11 9 -15 7 -4 -3
-19 16 -33 41 -37 69 -52 76 -118 51z m-43 -108 c1 -45 -2 -47 -35 -22 l-23
18 21 22 c29 31 35 28 37 -18z m-52 -58 c-3 -3 -11 0 -18 7 -9 10 -8 11 6 5
10 -3 15 -9 12 -12z m480 -1494 c-1 -13 -3 -35 -4 -50 0 -16 -6 -28 -12 -28
-5 0 -7 5 -4 10 3 6 7 28 7 50 0 22 4 40 8 40 4 0 6 -10 5 -22z m-9 -97 c-3
-5 -7 -29 -7 -55 -1 -25 -6 -46 -10 -46 -4 0 -6 8 -4 18 2 9 4 34 4 55 1 20 6
37 12 37 5 0 8 -4 5 -9z"/>
<path d="M2060 2280 c6 -11 13 -20 16 -20 2 0 0 9 -6 20 -6 11 -13 20 -16 20
-2 0 0 -9 6 -20z"/>
<path d="M2086 2237 c3 -10 9 -15 12 -12 3 3 0 11 -7 18 -10 9 -11 8 -5 -6z"/>
<path d="M2051 2051 c-20 -39 -21 -45 -8 -59 14 -13 17 -11 32 24 11 26 13 45
7 59 -8 18 -11 16 -31 -24z"/>
<path d="M2511 1954 c-28 -51 -97 -116 -156 -146 -49 -25 -48 -24 -41 -37 10
-16 96 25 149 70 54 47 100 119 91 143 -10 25 -17 20 -43 -30z"/>
<path d="M2160 1840 c6 -11 13 -20 16 -20 2 0 0 9 -6 20 -6 11 -13 20 -16 20
-2 0 0 -9 6 -20z"/>
</g>
</svg>
